<svg width="118" height="36" fill="none" xmlns="http://www.w3.org/2000/svg"><path d="M61.616 13.432h-4.64v12.394h-2.801V13.432h-4.64v-2.547h12.081v2.547zm5.17 12.605c-.873 0-1.656-.154-2.351-.463a5.467 5.467 0 01-1.779-1.242 5.766 5.766 0 01-1.104-1.83 6.096 6.096 0 01-.388-2.168c0-.772.13-1.501.388-2.189a5.52 5.52 0 011.104-1.81 5.316 5.316 0 011.779-1.262c.695-.309 1.478-.463 2.35-.463.873 0 1.65.154 2.331.463a5.11 5.11 0 011.758 1.263c.49.519.866 1.122 1.125 1.81.258.687.388 1.416.388 2.188 0 .758-.13 1.48-.388 2.168a5.768 5.768 0 01-1.104 1.83 5.24 5.24 0 01-1.758 1.242c-.696.309-1.48.463-2.351.463zm-2.801-5.703c0 .491.068.94.204 1.347.15.393.348.736.593 1.031.26.295.559.526.9.694.34.155.708.232 1.104.232.395 0 .763-.077 1.103-.232.341-.168.634-.4.88-.694a3.03 3.03 0 00.592-1.052 3.87 3.87 0 00.225-1.347c0-.477-.075-.919-.225-1.326a3.03 3.03 0 00-.593-1.052 2.444 2.444 0 00-.879-.673 2.459 2.459 0 00-1.103-.253c-.396 0-.764.084-1.104.253a2.9 2.9 0 00-.9.694 3.54 3.54 0 00-.593 1.052 4.149 4.149 0 00-.204 1.326zm11.399 5.492v-14.94h9.751v2.546h-6.93v3.85h5.765v2.358h-5.765v6.186h-2.821zm13.681.211a4.108 4.108 0 01-1.451-.253 3.708 3.708 0 01-1.165-.736 3.696 3.696 0 01-.777-1.115 3.544 3.544 0 01-.266-1.39c0-.518.11-.995.327-1.43.232-.45.545-.828.94-1.137a4.571 4.571 0 011.452-.715 5.901 5.901 0 011.84-.274c.477 0 .94.042 1.39.127.463.084.872.203 1.227.357v-.631c0-.73-.205-1.29-.614-1.684-.395-.392-.988-.589-1.778-.589-.573 0-1.132.105-1.677.316a7.682 7.682 0 00-1.676.926L86 16.02c1.376-.94 2.862-1.41 4.457-1.41 1.54 0 2.732.393 3.577 1.179.858.771 1.288 1.894 1.288 3.367v3.43c0 .294.047.505.143.631.109.126.28.196.511.21v2.4a5.933 5.933 0 01-1.206.147c-.518 0-.92-.12-1.206-.358a1.57 1.57 0 01-.511-.947l-.062-.61a4.774 4.774 0 01-1.737 1.473 4.871 4.871 0 01-2.188.505zm.777-2.062c.463 0 .9-.085 1.308-.253.423-.168.75-.393.982-.673.3-.239.45-.505.45-.8v-1.263a5.912 5.912 0 00-1.063-.294 5.12 5.12 0 00-1.104-.127c-.71 0-1.288.169-1.738.506-.45.322-.675.736-.675 1.241 0 .477.178.877.532 1.2.354.308.79.463 1.308.463zm15.4 1.283c-.368.169-.818.337-1.349.505a5.524 5.524 0 01-1.677.253 3.94 3.94 0 01-1.083-.147 2.536 2.536 0 01-.879-.463 2.509 2.509 0 01-.593-.842c-.15-.35-.225-.772-.225-1.263v-6.334h-1.41V14.8h1.41v-3.578h2.739V14.8h2.249v2.167h-2.249v5.387c0 .393.096.674.287.842.204.154.449.231.736.231.286 0 .565-.049.838-.147.272-.098.49-.182.654-.252l.552 2.23zm7.157.779c-.859 0-1.636-.147-2.331-.442a5.46 5.46 0 01-1.778-1.242 5.626 5.626 0 01-1.145-1.81 6.096 6.096 0 01-.388-2.167c0-.786.129-1.522.388-2.21a5.318 5.318 0 011.124-1.83 5.323 5.323 0 011.779-1.263c.708-.309 1.499-.463 2.371-.463.872 0 1.649.154 2.331.463a5.24 5.24 0 011.758 1.242c.49.519.858 1.122 1.104 1.81.259.687.388 1.402.388 2.146 0 .182-.007.358-.02.526 0 .168-.014.309-.041.42h-8.28c.041.436.143.822.307 1.158.164.337.375.625.634.863a2.8 2.8 0 001.901.737c.545 0 1.056-.134 1.533-.4.491-.28.825-.646 1.002-1.095l2.351.674c-.396.842-1.029 1.536-1.901 2.083-.859.533-1.888.8-3.087.8zm2.78-6.65c-.068-.828-.368-1.487-.9-1.978-.517-.505-1.151-.758-1.901-.758-.368 0-.715.07-1.042.21a2.56 2.56 0 00-.838.548c-.246.238-.45.526-.614.863a3.24 3.24 0 00-.265 1.115h5.56z" fill="#fff"/><path fill-rule="evenodd" clip-rule="evenodd" d="M39.956.882l-.612-.44C38.81.055 36.972 0 24.882 0h-13.85l-2.68 2.52a169.946 169.946 0 00-5.516 5.5L0 11.002l.083 12.03c.066 9.686.156 12.122.46 12.5.343.424 1.707.468 14.533.468H29.23l1.852-1.754a454.591 454.591 0 005.363-5.226l3.511-3.474V.882zM7.493 7.746c1.27-1.326 2.558-2.518 2.861-2.65.303-.133 5.653-.25 11.89-.26 9.957-.015 11.392.037 11.772.428.533.549.599 3.32.089 3.734-.804.653-3.801.794-11.789.552-1.61-.048-1.905.03-2.706.726l-.9.78h-6.596c-5.771 0-6.617-.057-6.764-.451-.116-.31.55-1.198 2.143-2.86zm13.309 3.937c.768-.862 1.16-1.061 2.395-1.212 3.396-.416 11.73.063 12.143.697.346.535.233 2.916-.154 3.247-.201.172-1.285.395-2.41.496-1.227.11-2.388.397-2.903.716-.559.345-1.382.53-2.355.53-.823 0-1.644.154-1.826.34-.482.497-.413 2.653.102 3.184.308.316.969.445 2.286.445 1.074 0 1.992.143 2.183.34.343.353.465 3.788.163 4.597-.125.338-.56.449-1.755.449-2.797 0-3.244.206-5.697 2.63-1.282 1.267-2.44 2.191-2.646 2.11-.29-.114-.372-1.914-.404-8.84l-.04-8.697.918-1.032zm-6.951 4.53a171.29 171.29 0 012.903-3.128c1.66-1.706 1.708-1.465 1.715 8.53.004 6.08-.09 8.92-.302 9.184-.406.504-5.484.54-5.968.042-.236-.243-.33-2.063-.33-6.393v-6.052l1.982-2.182z" fill="#fff"/></svg>